<?xml version="1.0" encoding="UTF-8"?>
<svg xmlns="http://www.w3.org/2000/svg" xmlns:xlink="http://www.w3.org/1999/xlink" viewBox="0 0 28 28" width="28px" height="28px">
<g id="surface102272533">
<path style="fill-rule:nonzero;fill:rgb(11.372549%,91.37255%,71.372551%);fill-opacity:1;stroke-width:25;stroke-linecap:butt;stroke-linejoin:round;stroke:rgb(3.921569%,3.921569%,3.921569%);stroke-opacity:1;stroke-miterlimit:10;" d="M 67.702036 114.679598 L 75.262273 114.679598 L 75.262273 143.331802 C 75.262273 147.276274 72.029998 150.508549 68.085526 150.508549 L 53.759424 150.508549 C 49.814953 150.508549 46.582677 147.276274 46.582677 143.331802 L 46.582677 114.679598 L 17.519591 114.679598 C 12.06855 114.679598 8.644529 108.790283 11.246785 104.024046 L 54.635973 25.655063 C 57.37519 20.751866 64.469761 20.751866 67.181585 25.655063 L 84.575609 60.552681 L 61.42923 104.024046 C 58.799582 108.790283 62.250995 114.679598 67.702036 114.679598 Z M 67.702036 114.679598 " transform="matrix(0.142605,0,0,0.142605,1.736,1.736)"/>
<path style="fill-rule:nonzero;fill:rgb(14.901961%,65.098041%,60.392159%);fill-opacity:1;stroke-width:25;stroke-linecap:butt;stroke-linejoin:round;stroke:rgb(3.921569%,3.921569%,3.921569%);stroke-opacity:1;stroke-miterlimit:10;" d="M 154.480413 114.679598 L 125.417326 114.679598 L 125.417326 143.331802 C 125.417326 147.276274 122.185051 150.508549 118.240579 150.508549 L 103.914477 150.508549 C 99.970006 150.508549 96.73773 147.276274 96.73773 143.331802 L 96.73773 114.679598 L 104.297968 114.679598 C 109.749008 114.679598 113.200421 108.790283 110.570773 104.024046 L 87.068296 60.552681 L 104.818419 25.655063 C 107.530243 20.751866 114.624814 20.751866 117.36403 25.655063 L 160.753219 104.024046 C 163.355474 108.790283 159.931454 114.679598 154.480413 114.679598 Z M 154.480413 114.679598 " transform="matrix(0.142605,0,0,0.142605,1.736,1.736)"/>
<path style=" stroke:none;fill-rule:nonzero;fill:rgb(100%,100%,100%);fill-opacity:1;" d="M 11.390625 18.089844 L 12.46875 18.089844 L 12.46875 22.175781 C 12.46875 22.738281 12.007812 23.199219 11.445312 23.199219 L 9.402344 23.199219 C 8.839844 23.199219 8.378906 22.738281 8.378906 22.175781 L 8.378906 18.089844 L 4.234375 18.089844 C 3.457031 18.089844 2.96875 17.25 3.339844 16.570312 L 9.527344 5.394531 C 9.917969 4.695312 10.929688 4.695312 11.316406 5.394531 L 13.796875 10.371094 L 10.496094 16.570312 C 10.121094 17.25 10.613281 18.089844 11.390625 18.089844 Z M 11.390625 18.089844 "/>
<path style=" stroke:none;fill-rule:nonzero;fill:rgb(100%,100%,100%);fill-opacity:1;" d="M 23.765625 18.089844 L 19.621094 18.089844 L 19.621094 22.175781 C 19.621094 22.738281 19.160156 23.199219 18.597656 23.199219 L 16.554688 23.199219 C 15.992188 23.199219 15.53125 22.738281 15.53125 22.175781 L 15.53125 18.089844 L 16.609375 18.089844 C 17.386719 18.089844 17.878906 17.25 17.503906 16.570312 L 14.152344 10.371094 L 16.683594 5.394531 C 17.070312 4.695312 18.082031 4.695312 18.472656 5.394531 L 24.660156 16.570312 C 25.03125 17.25 24.542969 18.089844 23.765625 18.089844 Z M 23.765625 18.089844 "/>
</g>
</svg>
