<?xml version="1.0" encoding="UTF-8"?>
<svg xmlns="http://www.w3.org/2000/svg" xmlns:xlink="http://www.w3.org/1999/xlink" viewBox="0 0 24 24" width="24px" height="24px">
<g id="surface102316189">
<path style="fill-rule:nonzero;fill:rgb(80.000001%,80.000001%,80.000001%);fill-opacity:1;stroke-width:10;stroke-linecap:butt;stroke-linejoin:round;stroke:rgb(0%,0%,0%);stroke-opacity:1;stroke-miterlimit:10;" d="M 67.692295 114.676147 L 75.246446 114.676147 L 75.246446 143.32267 C 75.246446 147.262677 72.017417 150.491706 68.077409 150.491706 L 53.739336 150.491706 C 49.799328 150.491706 46.570299 147.262677 46.570299 143.32267 L 46.570299 114.676147 L 17.509039 114.676147 C 12.087825 114.676147 8.621803 108.780948 11.25835 104.011465 L 54.657683 25.655671 C 57.383102 20.738068 64.463267 20.738068 67.188685 25.655671 L 84.578043 60.552883 L 61.411982 104.011465 C 58.80506 108.780948 62.241458 114.676147 67.692295 114.676147 Z M 67.692295 114.676147 " transform="matrix(0.13186,0,0,0.13186,0.66,0.66)"/>
<path style="fill-rule:nonzero;fill:rgb(92.54902%,94.117647%,94.509804%);fill-opacity:1;stroke-width:10;stroke-linecap:butt;stroke-linejoin:round;stroke:rgb(0%,0%,0%);stroke-opacity:1;stroke-miterlimit:10;" d="M 154.490962 114.676147 L 125.429702 114.676147 L 125.429702 143.32267 C 125.429702 147.262677 122.200673 150.491706 118.260666 150.491706 L 103.922592 150.491706 C 99.982585 150.491706 96.753556 147.262677 96.753556 143.32267 L 96.753556 114.676147 L 104.307706 114.676147 C 109.758544 114.676147 113.194941 108.780948 110.588019 104.011465 L 87.066469 60.552883 L 104.811316 25.655671 C 107.536735 20.738068 114.616899 20.738068 117.342318 25.655671 L 160.741651 104.011465 C 163.378198 108.780948 159.912176 114.676147 154.490962 114.676147 Z M 154.490962 114.676147 " transform="matrix(0.13186,0,0,0.13186,0.66,0.66)"/>
<path style=" stroke:none;fill-rule:nonzero;fill:rgb(100%,100%,100%);fill-opacity:1;" d="M 9.585938 15.78125 L 10.582031 15.78125 L 10.582031 19.558594 C 10.582031 20.078125 10.15625 20.503906 9.636719 20.503906 L 7.746094 20.503906 C 7.226562 20.503906 6.800781 20.078125 6.800781 19.558594 L 6.800781 15.78125 L 2.96875 15.78125 C 2.253906 15.78125 1.796875 15.003906 2.144531 14.375 L 7.867188 4.042969 C 8.226562 3.394531 9.160156 3.394531 9.519531 4.042969 L 11.8125 8.644531 L 8.757812 14.375 C 8.414062 15.003906 8.867188 15.78125 9.585938 15.78125 Z M 9.585938 15.78125 "/>
<path style=" stroke:none;fill-rule:nonzero;fill:rgb(100%,100%,100%);fill-opacity:1;" d="M 21.03125 15.78125 L 17.199219 15.78125 L 17.199219 19.558594 C 17.199219 20.078125 16.773438 20.503906 16.253906 20.503906 L 14.363281 20.503906 C 13.84375 20.503906 13.417969 20.078125 13.417969 19.558594 L 13.417969 15.78125 L 14.414062 15.78125 C 15.132812 15.78125 15.585938 15.003906 15.242188 14.375 L 12.140625 8.644531 L 14.480469 4.042969 C 14.839844 3.394531 15.773438 3.394531 16.132812 4.042969 L 21.855469 14.375 C 22.203125 15.003906 21.746094 15.78125 21.03125 15.78125 Z M 21.03125 15.78125 "/>
</g>
</svg>
