<?xml version="1.0" encoding="UTF-8"?>
<svg xmlns="http://www.w3.org/2000/svg" xmlns:xlink="http://www.w3.org/1999/xlink" viewBox="0 0 30 30" width="30px" height="30px">
<g id="surface102273475">
<path style="fill-rule:nonzero;fill:rgb(11.372549%,91.37255%,71.372551%);fill-opacity:1;stroke-width:25;stroke-linecap:butt;stroke-linejoin:round;stroke:rgb(3.921569%,3.921569%,3.921569%);stroke-opacity:1;stroke-miterlimit:10;" d="M 67.694731 114.65951 L 75.262273 114.65951 L 75.262273 143.344585 C 75.262273 147.281752 72.015389 150.503071 68.078222 150.503071 L 53.76125 150.503071 C 49.798517 150.503071 46.577199 147.281752 46.577199 143.344585 L 46.577199 114.65951 L 17.5342 114.65951 C 12.063071 114.65951 8.637225 108.779326 11.244959 104.024046 L 54.656061 25.664194 C 57.366059 20.755518 64.473413 20.755518 67.183411 25.664194 L 84.568305 60.561812 L 61.431056 104.024046 C 58.797756 108.779326 62.249169 114.65951 67.694731 114.65951 Z M 67.694731 114.65951 " transform="matrix(0.152791,0,0,0.152791,1.86,1.86)"/>
<path style="fill-rule:nonzero;fill:rgb(14.901961%,65.098041%,60.392159%);fill-opacity:1;stroke-width:25;stroke-linecap:butt;stroke-linejoin:round;stroke:rgb(3.921569%,3.921569%,3.921569%);stroke-opacity:1;stroke-miterlimit:10;" d="M 154.465804 114.65951 L 125.422805 114.65951 L 125.422805 143.344585 C 125.422805 147.281752 122.201486 150.503071 118.238753 150.503071 L 103.921782 150.503071 C 99.984615 150.503071 96.73773 147.281752 96.73773 143.344585 L 96.73773 114.65951 L 104.305272 114.65951 C 109.750835 114.65951 113.202247 108.779326 110.568947 104.024046 L 87.073775 60.561812 L 104.816593 25.664194 C 107.526591 20.755518 114.633944 20.755518 117.343942 25.664194 L 160.755045 104.024046 C 163.362779 108.779326 159.936932 114.65951 154.465804 114.65951 Z M 154.465804 114.65951 " transform="matrix(0.152791,0,0,0.152791,1.86,1.86)"/>
<path style=" stroke:none;fill-rule:nonzero;fill:rgb(100%,100%,100%);fill-opacity:1;" d="M 12.203125 19.378906 L 13.359375 19.378906 L 13.359375 23.761719 C 13.359375 24.363281 12.863281 24.855469 12.261719 24.855469 L 10.074219 24.855469 C 9.46875 24.855469 8.976562 24.363281 8.976562 23.761719 L 8.976562 19.378906 L 4.539062 19.378906 C 3.703125 19.378906 3.179688 18.480469 3.578125 17.753906 L 10.210938 5.78125 C 10.625 5.03125 11.710938 5.03125 12.125 5.78125 L 14.78125 11.113281 L 11.246094 17.753906 C 10.84375 18.480469 11.371094 19.378906 12.203125 19.378906 Z M 12.203125 19.378906 "/>
<path style=" stroke:none;fill-rule:nonzero;fill:rgb(100%,100%,100%);fill-opacity:1;" d="M 25.460938 19.378906 L 21.023438 19.378906 L 21.023438 23.761719 C 21.023438 24.363281 20.53125 24.855469 19.925781 24.855469 L 17.738281 24.855469 C 17.136719 24.855469 16.640625 24.363281 16.640625 23.761719 L 16.640625 19.378906 L 17.796875 19.378906 C 18.628906 19.378906 19.15625 18.480469 18.753906 17.753906 L 15.164062 11.113281 L 17.875 5.78125 C 18.289062 5.03125 19.375 5.03125 19.789062 5.78125 L 26.421875 17.753906 C 26.820312 18.480469 26.296875 19.378906 25.460938 19.378906 Z M 25.460938 19.378906 "/>
</g>
</svg>
